%TF.GenerationSoftware,KiCad,Pcbnew,6.0.4-6f826c9f35~116~ubuntu20.04.1*%
%TF.CreationDate,2022-04-11T15:29:44-04:00*%
%TF.ProjectId,Brake Controller,4272616b-6520-4436-9f6e-74726f6c6c65,A*%
%TF.SameCoordinates,Original*%
%TF.FileFunction,Copper,L1,Top*%
%TF.FilePolarity,Positive*%
%FSLAX46Y46*%
G04 Gerber Fmt 4.6, Leading zero omitted, Abs format (unit mm)*
G04 Created by KiCad (PCBNEW 6.0.4-6f826c9f35~116~ubuntu20.04.1) date 2022-04-11 15:29:44*
%MOMM*%
%LPD*%
G01*
G04 APERTURE LIST*
G04 Aperture macros list*
%AMRoundRect*
0 Rectangle with rounded corners*
0 $1 Rounding radius*
0 $2 $3 $4 $5 $6 $7 $8 $9 X,Y pos of 4 corners*
0 Add a 4 corners polygon primitive as box body*
4,1,4,$2,$3,$4,$5,$6,$7,$8,$9,$2,$3,0*
0 Add four circle primitives for the rounded corners*
1,1,$1+$1,$2,$3*
1,1,$1+$1,$4,$5*
1,1,$1+$1,$6,$7*
1,1,$1+$1,$8,$9*
0 Add four rect primitives between the rounded corners*
20,1,$1+$1,$2,$3,$4,$5,0*
20,1,$1+$1,$4,$5,$6,$7,0*
20,1,$1+$1,$6,$7,$8,$9,0*
20,1,$1+$1,$8,$9,$2,$3,0*%
%AMFreePoly0*
4,1,6,1.000000,0.000000,0.500000,-0.750000,-0.500000,-0.750000,-0.500000,0.750000,0.500000,0.750000,1.000000,0.000000,1.000000,0.000000,$1*%
%AMFreePoly1*
4,1,6,0.500000,-0.750000,-0.650000,-0.750000,-0.150000,0.000000,-0.650000,0.750000,0.500000,0.750000,0.500000,-0.750000,0.500000,-0.750000,$1*%
G04 Aperture macros list end*
%TA.AperFunction,SMDPad,CuDef*%
%ADD10RoundRect,0.250000X-0.475000X0.337500X-0.475000X-0.337500X0.475000X-0.337500X0.475000X0.337500X0*%
%TD*%
%TA.AperFunction,SMDPad,CuDef*%
%ADD11RoundRect,0.250000X0.475000X-0.337500X0.475000X0.337500X-0.475000X0.337500X-0.475000X-0.337500X0*%
%TD*%
%TA.AperFunction,SMDPad,CuDef*%
%ADD12RoundRect,0.250000X0.450000X-0.350000X0.450000X0.350000X-0.450000X0.350000X-0.450000X-0.350000X0*%
%TD*%
%TA.AperFunction,SMDPad,CuDef*%
%ADD13FreePoly0,0.000000*%
%TD*%
%TA.AperFunction,SMDPad,CuDef*%
%ADD14FreePoly1,0.000000*%
%TD*%
%TA.AperFunction,SMDPad,CuDef*%
%ADD15RoundRect,0.250000X-0.450000X0.350000X-0.450000X-0.350000X0.450000X-0.350000X0.450000X0.350000X0*%
%TD*%
%TA.AperFunction,ComponentPad*%
%ADD16R,1.700000X1.700000*%
%TD*%
%TA.AperFunction,ComponentPad*%
%ADD17O,1.700000X1.700000*%
%TD*%
%TA.AperFunction,SMDPad,CuDef*%
%ADD18R,0.800000X4.600000*%
%TD*%
%TA.AperFunction,SMDPad,CuDef*%
%ADD19R,10.800000X9.400000*%
%TD*%
%TA.AperFunction,SMDPad,CuDef*%
%ADD20RoundRect,0.250000X0.337500X0.475000X-0.337500X0.475000X-0.337500X-0.475000X0.337500X-0.475000X0*%
%TD*%
%TA.AperFunction,SMDPad,CuDef*%
%ADD21R,1.200000X2.200000*%
%TD*%
%TA.AperFunction,SMDPad,CuDef*%
%ADD22R,5.800000X6.400000*%
%TD*%
%TA.AperFunction,SMDPad,CuDef*%
%ADD23RoundRect,0.250000X-0.337500X-0.475000X0.337500X-0.475000X0.337500X0.475000X-0.337500X0.475000X0*%
%TD*%
%TA.AperFunction,SMDPad,CuDef*%
%ADD24RoundRect,0.150000X-0.587500X-0.150000X0.587500X-0.150000X0.587500X0.150000X-0.587500X0.150000X0*%
%TD*%
%TA.AperFunction,ViaPad*%
%ADD25C,1.000000*%
%TD*%
%TA.AperFunction,ViaPad*%
%ADD26C,0.800000*%
%TD*%
%TA.AperFunction,Conductor*%
%ADD27C,0.500000*%
%TD*%
%TA.AperFunction,Conductor*%
%ADD28C,0.250000*%
%TD*%
G04 APERTURE END LIST*
D10*
%TO.P,C6,1*%
%TO.N,Net-(C1-Pad1)*%
X144526000Y-101578500D03*
%TO.P,C6,2*%
%TO.N,GND*%
X144526000Y-103653500D03*
%TD*%
D11*
%TO.P,C24,1*%
%TO.N,Net-(C24-Pad1)*%
X149352000Y-99081500D03*
%TO.P,C24,2*%
%TO.N,GND*%
X149352000Y-97006500D03*
%TD*%
D12*
%TO.P,R12,1*%
%TO.N,Net-(R12-Pad1)*%
X134620000Y-99028000D03*
%TO.P,R12,2*%
%TO.N,/IN1*%
X134620000Y-97028000D03*
%TD*%
D13*
%TO.P,JP1,1,A*%
%TO.N,VS*%
X137197000Y-96139000D03*
D14*
%TO.P,JP1,2,B*%
%TO.N,Net-(C1-Pad1)*%
X138647000Y-96139000D03*
%TD*%
D15*
%TO.P,R1,1*%
%TO.N,Net-(Q1-Pad1)*%
X141732000Y-109998000D03*
%TO.P,R1,2*%
%TO.N,GND*%
X141732000Y-111998000D03*
%TD*%
D16*
%TO.P,J2,1,Pin_1*%
%TO.N,/MOTOR+*%
X124460000Y-121920000D03*
D17*
%TO.P,J2,2,Pin_2*%
X127000000Y-121920000D03*
%TO.P,J2,3,Pin_3*%
X129540000Y-121920000D03*
%TO.P,J2,4,Pin_4*%
X132080000Y-121920000D03*
%TO.P,J2,5,Pin_5*%
X134620000Y-121920000D03*
%TO.P,J2,6,Pin_6*%
X137160000Y-121920000D03*
%TO.P,J2,7,Pin_7*%
%TO.N,unconnected-(J2-Pad7)*%
X139700000Y-121920000D03*
%TO.P,J2,8,Pin_8*%
%TO.N,/MOTOR-*%
X142240000Y-121920000D03*
%TO.P,J2,9,Pin_9*%
X144780000Y-121920000D03*
%TO.P,J2,10,Pin_10*%
X147320000Y-121920000D03*
%TO.P,J2,11,Pin_11*%
X149860000Y-121920000D03*
%TO.P,J2,12,Pin_12*%
X152400000Y-121920000D03*
%TO.P,J2,13,Pin_13*%
X154940000Y-121920000D03*
%TD*%
D12*
%TO.P,R15,1*%
%TO.N,/IS1*%
X125476000Y-99028000D03*
%TO.P,R15,2*%
%TO.N,GND*%
X125476000Y-97028000D03*
%TD*%
D11*
%TO.P,C14,1*%
%TO.N,Net-(C14-Pad1)*%
X127762000Y-99065500D03*
%TO.P,C14,2*%
%TO.N,GND*%
X127762000Y-96990500D03*
%TD*%
D18*
%TO.P,U1,1,GND*%
%TO.N,GND*%
X132842000Y-103118000D03*
%TO.P,U1,2,IN*%
%TO.N,Net-(R12-Pad1)*%
X131572000Y-103118000D03*
%TO.P,U1,3,INH*%
%TO.N,Net-(R13-Pad1)*%
X130302000Y-103118000D03*
%TO.P,U1,4,OUT*%
%TO.N,/MOTOR+*%
X129032000Y-103118000D03*
D19*
X129032000Y-112268000D03*
D18*
%TO.P,U1,5,SR*%
%TO.N,Net-(C14-Pad1)*%
X127762000Y-103118000D03*
%TO.P,U1,6,IS*%
%TO.N,/IS1*%
X126492000Y-103118000D03*
%TO.P,U1,7,VS*%
%TO.N,Net-(C1-Pad1)*%
X125222000Y-103118000D03*
%TD*%
D20*
%TO.P,C4,1*%
%TO.N,/MOTOR-*%
X143277500Y-116586000D03*
%TO.P,C4,2*%
%TO.N,GND*%
X141202500Y-116586000D03*
%TD*%
D21*
%TO.P,Q1,1,G*%
%TO.N,Net-(Q1-Pad1)*%
X136913000Y-107578000D03*
D22*
%TO.P,Q1,2,D*%
%TO.N,VS*%
X139193000Y-101278000D03*
D21*
%TO.P,Q1,3,S*%
%TO.N,Net-(C1-Pad1)*%
X141473000Y-107578000D03*
%TD*%
D20*
%TO.P,C1,1*%
%TO.N,Net-(C1-Pad1)*%
X138070500Y-114300000D03*
%TO.P,C1,2*%
%TO.N,/MOTOR+*%
X135995500Y-114300000D03*
%TD*%
D12*
%TO.P,R24,1*%
%TO.N,Net-(C24-Pad1)*%
X151638000Y-99044000D03*
%TO.P,R24,2*%
%TO.N,GND*%
X151638000Y-97044000D03*
%TD*%
%TO.P,R22,1*%
%TO.N,Net-(R22-Pad1)*%
X156210000Y-99028000D03*
%TO.P,R22,2*%
%TO.N,/IN2*%
X156210000Y-97028000D03*
%TD*%
%TO.P,R13,1*%
%TO.N,Net-(R13-Pad1)*%
X132334000Y-99044000D03*
%TO.P,R13,2*%
%TO.N,/EN*%
X132334000Y-97044000D03*
%TD*%
D11*
%TO.P,C25,1*%
%TO.N,/IS2*%
X144780000Y-99081500D03*
%TO.P,C25,2*%
%TO.N,GND*%
X144780000Y-97006500D03*
%TD*%
D18*
%TO.P,U2,1,GND*%
%TO.N,GND*%
X154178000Y-103118000D03*
%TO.P,U2,2,IN*%
%TO.N,Net-(R22-Pad1)*%
X152908000Y-103118000D03*
%TO.P,U2,3,INH*%
%TO.N,Net-(R23-Pad1)*%
X151638000Y-103118000D03*
%TO.P,U2,4,OUT*%
%TO.N,/MOTOR-*%
X150368000Y-103118000D03*
D19*
X150368000Y-112268000D03*
D18*
%TO.P,U2,5,SR*%
%TO.N,Net-(C24-Pad1)*%
X149098000Y-103118000D03*
%TO.P,U2,6,IS*%
%TO.N,/IS2*%
X147828000Y-103118000D03*
%TO.P,U2,7,VS*%
%TO.N,Net-(C1-Pad1)*%
X146558000Y-103118000D03*
%TD*%
D23*
%TO.P,C2,1*%
%TO.N,/MOTOR+*%
X135995500Y-116586000D03*
%TO.P,C2,2*%
%TO.N,GND*%
X138070500Y-116586000D03*
%TD*%
D11*
%TO.P,C15,1*%
%TO.N,/IS1*%
X123190000Y-99065500D03*
%TO.P,C15,2*%
%TO.N,GND*%
X123190000Y-96990500D03*
%TD*%
D12*
%TO.P,R25,1*%
%TO.N,/IS2*%
X147066000Y-99060000D03*
%TO.P,R25,2*%
%TO.N,GND*%
X147066000Y-97060000D03*
%TD*%
D24*
%TO.P,D1,1,A*%
%TO.N,Net-(Q1-Pad1)*%
X137492500Y-110048000D03*
%TO.P,D1,2,NC*%
%TO.N,unconnected-(D1-Pad2)*%
X137492500Y-111948000D03*
%TO.P,D1,3,K*%
%TO.N,Net-(C1-Pad1)*%
X139367500Y-110998000D03*
%TD*%
D16*
%TO.P,J1,1,Pin_1*%
%TO.N,VS*%
X124460000Y-88900000D03*
D17*
%TO.P,J1,2,Pin_2*%
X127000000Y-88900000D03*
%TO.P,J1,3,Pin_3*%
X129540000Y-88900000D03*
%TO.P,J1,4,Pin_4*%
X132080000Y-88900000D03*
%TO.P,J1,5,Pin_5*%
%TO.N,/EN*%
X134620000Y-88900000D03*
%TO.P,J1,6,Pin_6*%
%TO.N,/IN1*%
X137160000Y-88900000D03*
%TO.P,J1,7,Pin_7*%
%TO.N,/IN2*%
X139700000Y-88900000D03*
%TO.P,J1,8,Pin_8*%
%TO.N,/IS1*%
X142240000Y-88900000D03*
%TO.P,J1,9,Pin_9*%
%TO.N,/IS2*%
X144780000Y-88900000D03*
%TO.P,J1,10,Pin_10*%
%TO.N,GND*%
X147320000Y-88900000D03*
%TO.P,J1,11,Pin_11*%
X149860000Y-88900000D03*
%TO.P,J1,12,Pin_12*%
X152400000Y-88900000D03*
%TO.P,J1,13,Pin_13*%
X154940000Y-88900000D03*
%TD*%
D12*
%TO.P,R14,1*%
%TO.N,Net-(C14-Pad1)*%
X130048000Y-99044000D03*
%TO.P,R14,2*%
%TO.N,GND*%
X130048000Y-97044000D03*
%TD*%
D23*
%TO.P,C3,1*%
%TO.N,Net-(C1-Pad1)*%
X141181000Y-114300000D03*
%TO.P,C3,2*%
%TO.N,/MOTOR-*%
X143256000Y-114300000D03*
%TD*%
D10*
%TO.P,C5,1*%
%TO.N,Net-(C1-Pad1)*%
X123190000Y-101578500D03*
%TO.P,C5,2*%
%TO.N,GND*%
X123190000Y-103653500D03*
%TD*%
D11*
%TO.P,C7,1*%
%TO.N,Net-(C1-Pad1)*%
X142240000Y-96541500D03*
%TO.P,C7,2*%
%TO.N,GND*%
X142240000Y-94466500D03*
%TD*%
D12*
%TO.P,R23,1*%
%TO.N,Net-(R23-Pad1)*%
X153924000Y-99044000D03*
%TO.P,R23,2*%
%TO.N,/EN*%
X153924000Y-97044000D03*
%TD*%
D25*
%TO.N,GND*%
X155956000Y-103886000D03*
D26*
X131064000Y-95504000D03*
X148082000Y-95504000D03*
X143256000Y-103632000D03*
X128778000Y-95504000D03*
D25*
X155956000Y-105410000D03*
D26*
X145796000Y-95504000D03*
X123698000Y-105156000D03*
D25*
X134620000Y-100838000D03*
X134620000Y-102362000D03*
X134620000Y-105410000D03*
D26*
X126492000Y-95504000D03*
X140208000Y-112776000D03*
X124206000Y-95504000D03*
D25*
X134620000Y-103886000D03*
D26*
X139700000Y-116586000D03*
X143510000Y-95504000D03*
D25*
X155956000Y-100838000D03*
X155956000Y-102362000D03*
D26*
X150368000Y-95504000D03*
%TO.N,/IS1*%
X124454500Y-99065500D03*
%TO.N,/IS2*%
X146028500Y-99081500D03*
%TO.N,/EN*%
X132080000Y-92964000D03*
%TO.N,/IN1*%
X133604000Y-92964000D03*
%TD*%
D27*
%TO.N,Net-(C1-Pad1)*%
X123190000Y-101578500D02*
X123682500Y-101578500D01*
X138070500Y-114300000D02*
X141181000Y-114300000D01*
X144526000Y-101578500D02*
X145018500Y-101578500D01*
X125222000Y-105918000D02*
X125857000Y-106553000D01*
X135863489Y-106028489D02*
X139923489Y-106028489D01*
X123682500Y-101578500D02*
X125222000Y-103118000D01*
X146558000Y-103593000D02*
X146558000Y-103118000D01*
D28*
X139367500Y-110998000D02*
X142344493Y-110998000D01*
X142344493Y-110998000D02*
X143002000Y-110340493D01*
D27*
X144526000Y-101578500D02*
X143256000Y-100308500D01*
X125222000Y-103118000D02*
X125222000Y-105918000D01*
X143256000Y-97557500D02*
X142240000Y-96541500D01*
D28*
X139367500Y-113003000D02*
X138070500Y-114300000D01*
D27*
X141837500Y-96139000D02*
X142240000Y-96541500D01*
X125857000Y-106553000D02*
X135338978Y-106553000D01*
X141473000Y-107578000D02*
X142573000Y-107578000D01*
X139923489Y-106028489D02*
X141473000Y-107578000D01*
X142573000Y-107578000D02*
X146558000Y-103593000D01*
X145018500Y-101578500D02*
X146558000Y-103118000D01*
X138647000Y-96139000D02*
X141837500Y-96139000D01*
X135338978Y-106553000D02*
X135863489Y-106028489D01*
X143256000Y-100308500D02*
X143256000Y-97557500D01*
D28*
X143002000Y-109107000D02*
X141473000Y-107578000D01*
X139367500Y-110998000D02*
X139367500Y-113003000D01*
X143002000Y-110340493D02*
X143002000Y-109107000D01*
%TO.N,GND*%
X125476000Y-96520000D02*
X126492000Y-95504000D01*
X144780000Y-97006500D02*
X144780000Y-96774000D01*
X123190000Y-96520000D02*
X124206000Y-95504000D01*
D27*
X154178000Y-103118000D02*
X154178000Y-103632000D01*
D28*
X142472500Y-94466500D02*
X143510000Y-95504000D01*
D27*
X134620000Y-105410000D02*
X134620000Y-103886000D01*
D28*
X123190000Y-96990500D02*
X123190000Y-96520000D01*
D27*
X132842000Y-103118000D02*
X132842000Y-102616000D01*
X132842000Y-103632000D02*
X134620000Y-105410000D01*
X155956000Y-103886000D02*
X155956000Y-102362000D01*
X132842000Y-103118000D02*
X132842000Y-103632000D01*
X155956000Y-100838000D02*
X155956000Y-102362000D01*
X132842000Y-102616000D02*
X134620000Y-100838000D01*
D28*
X151638000Y-97044000D02*
X151638000Y-96774000D01*
D27*
X134620000Y-100838000D02*
X134620000Y-102362000D01*
D28*
X143277500Y-103653500D02*
X143256000Y-103632000D01*
D27*
X155956000Y-105410000D02*
X155956000Y-103886000D01*
D28*
X151638000Y-96774000D02*
X150368000Y-95504000D01*
X130048000Y-96520000D02*
X131064000Y-95504000D01*
D27*
X154178000Y-102616000D02*
X155956000Y-100838000D01*
D28*
X130048000Y-97044000D02*
X130048000Y-96520000D01*
X144526000Y-103653500D02*
X143277500Y-103653500D01*
D27*
X138070500Y-116586000D02*
X141202500Y-116586000D01*
D28*
X125476000Y-97028000D02*
X125476000Y-96520000D01*
X142240000Y-94466500D02*
X142472500Y-94466500D01*
X144780000Y-96774000D02*
X143510000Y-95504000D01*
X147066000Y-96774000D02*
X145796000Y-95504000D01*
X140986000Y-111998000D02*
X140208000Y-112776000D01*
X149352000Y-96774000D02*
X148082000Y-95504000D01*
D27*
X134620000Y-102362000D02*
X134620000Y-103886000D01*
D28*
X123190000Y-103653500D02*
X123190000Y-104648000D01*
X149352000Y-97006500D02*
X149352000Y-96774000D01*
X141732000Y-111998000D02*
X140986000Y-111998000D01*
X123190000Y-104648000D02*
X123698000Y-105156000D01*
X127762000Y-96990500D02*
X127762000Y-96520000D01*
X127762000Y-96520000D02*
X128778000Y-95504000D01*
D27*
X154178000Y-103632000D02*
X155956000Y-105410000D01*
X154178000Y-103118000D02*
X154178000Y-102616000D01*
D28*
X147066000Y-97060000D02*
X147066000Y-96774000D01*
%TO.N,Net-(C14-Pad1)*%
X130048000Y-99044000D02*
X127783500Y-99044000D01*
X127783500Y-99044000D02*
X127762000Y-99065500D01*
X127762000Y-99065500D02*
X127762000Y-103118000D01*
%TO.N,/IS1*%
X125476000Y-99028000D02*
X126492000Y-100044000D01*
X124454500Y-99065500D02*
X125438500Y-99065500D01*
X123190000Y-99065500D02*
X124454500Y-99065500D01*
X126492000Y-100044000D02*
X126492000Y-103118000D01*
X125438500Y-99065500D02*
X125476000Y-99028000D01*
%TO.N,Net-(C24-Pad1)*%
X149352000Y-99081500D02*
X149098000Y-99335500D01*
X151638000Y-99044000D02*
X149389500Y-99044000D01*
X149098000Y-99335500D02*
X149098000Y-103118000D01*
X149389500Y-99044000D02*
X149352000Y-99081500D01*
%TO.N,/IS2*%
X147044500Y-99081500D02*
X147066000Y-99060000D01*
X146028500Y-99081500D02*
X147044500Y-99081500D01*
X147066000Y-99060000D02*
X147828000Y-99822000D01*
X144780000Y-99081500D02*
X146028500Y-99081500D01*
X147828000Y-99822000D02*
X147828000Y-103118000D01*
D27*
%TO.N,VS*%
X137197000Y-94017000D02*
X137197000Y-96139000D01*
X137197000Y-96139000D02*
X137197000Y-99282000D01*
X127000000Y-88900000D02*
X129540000Y-88900000D01*
X129540000Y-88900000D02*
X132080000Y-88900000D01*
X124460000Y-88900000D02*
X127000000Y-88900000D01*
X132080000Y-88900000D02*
X137197000Y-94017000D01*
X137197000Y-99282000D02*
X139193000Y-101278000D01*
D28*
%TO.N,/EN*%
X134620000Y-88900000D02*
X138938000Y-93218000D01*
X132080000Y-96790000D02*
X132080000Y-92964000D01*
X132334000Y-97044000D02*
X132080000Y-96790000D01*
X138938000Y-93218000D02*
X150098000Y-93218000D01*
X150098000Y-93218000D02*
X153924000Y-97044000D01*
%TO.N,/IN1*%
X133604000Y-92964000D02*
X134620000Y-93980000D01*
X134620000Y-93980000D02*
X134620000Y-97028000D01*
%TO.N,/IN2*%
X151638000Y-92456000D02*
X156210000Y-97028000D01*
X139700000Y-88900000D02*
X143256000Y-92456000D01*
X143256000Y-92456000D02*
X151638000Y-92456000D01*
%TO.N,Net-(R12-Pad1)*%
X132725518Y-100064482D02*
X133583518Y-100064482D01*
X131572000Y-101218000D02*
X132725518Y-100064482D01*
X133583518Y-100064482D02*
X134620000Y-99028000D01*
X131572000Y-103118000D02*
X131572000Y-101218000D01*
%TO.N,Net-(R13-Pad1)*%
X132334000Y-99044000D02*
X130302000Y-101076000D01*
X130302000Y-101076000D02*
X130302000Y-103118000D01*
%TO.N,Net-(R22-Pad1)*%
X155162000Y-100076000D02*
X156210000Y-99028000D01*
X152908000Y-101218000D02*
X154050000Y-100076000D01*
X152908000Y-103118000D02*
X152908000Y-101218000D01*
X154050000Y-100076000D02*
X155162000Y-100076000D01*
%TO.N,Net-(R23-Pad1)*%
X151638000Y-100838000D02*
X151638000Y-103118000D01*
X153432000Y-99044000D02*
X151638000Y-100838000D01*
X153924000Y-99044000D02*
X153432000Y-99044000D01*
%TO.N,Net-(Q1-Pad1)*%
X141682000Y-110048000D02*
X141732000Y-109998000D01*
X136913000Y-109468500D02*
X137492500Y-110048000D01*
X136913000Y-107578000D02*
X136913000Y-109468500D01*
X137492500Y-110048000D02*
X141682000Y-110048000D01*
D27*
%TO.N,/MOTOR+*%
X131064000Y-114300000D02*
X129032000Y-112268000D01*
X135995500Y-114300000D02*
X135995500Y-116586000D01*
X133350000Y-116586000D02*
X129032000Y-112268000D01*
X135995500Y-116586000D02*
X133350000Y-116586000D01*
X135995500Y-114300000D02*
X131064000Y-114300000D01*
%TO.N,/MOTOR-*%
X143256000Y-116564500D02*
X143277500Y-116586000D01*
X143256000Y-114300000D02*
X148336000Y-114300000D01*
X146050000Y-116586000D02*
X150368000Y-112268000D01*
X148336000Y-114300000D02*
X150368000Y-112268000D01*
X143277500Y-116586000D02*
X146050000Y-116586000D01*
X143256000Y-114300000D02*
X143256000Y-116564500D01*
%TD*%
%TA.AperFunction,Conductor*%
%TO.N,/MOTOR+*%
G36*
X134689121Y-107462002D02*
G01*
X134735614Y-107515658D01*
X134747000Y-107568000D01*
X134747000Y-117729000D01*
X136637873Y-118967848D01*
X138373051Y-120104689D01*
X138419070Y-120158752D01*
X138430000Y-120210083D01*
X138430000Y-121402779D01*
X138422351Y-121445722D01*
X138420688Y-121449305D01*
X138360989Y-121664570D01*
X138337251Y-121886695D01*
X138350110Y-122109715D01*
X138351247Y-122114761D01*
X138351248Y-122114767D01*
X138372275Y-122208069D01*
X138399222Y-122327639D01*
X138401164Y-122332421D01*
X138401165Y-122332425D01*
X138420743Y-122380639D01*
X138430000Y-122428043D01*
X138430000Y-123825500D01*
X138409998Y-123893621D01*
X138356342Y-123940114D01*
X138304000Y-123951500D01*
X122731367Y-123951500D01*
X122711982Y-123950000D01*
X122697149Y-123947690D01*
X122697145Y-123947690D01*
X122688276Y-123946309D01*
X122679371Y-123947473D01*
X122670402Y-123947364D01*
X122670412Y-123946550D01*
X122648902Y-123946257D01*
X122623378Y-123942215D01*
X122585884Y-123930033D01*
X122550776Y-123912145D01*
X122518883Y-123888973D01*
X122491027Y-123861117D01*
X122467855Y-123829225D01*
X122449967Y-123794118D01*
X122437785Y-123756622D01*
X122434661Y-123736894D01*
X122433769Y-123710554D01*
X122433576Y-123710552D01*
X122433627Y-123706357D01*
X122433729Y-123698000D01*
X122429773Y-123670376D01*
X122428500Y-123652514D01*
X122428500Y-107568000D01*
X122448502Y-107499879D01*
X122502158Y-107453386D01*
X122554500Y-107442000D01*
X134621000Y-107442000D01*
X134689121Y-107462002D01*
G37*
%TD.AperFunction*%
%TD*%
%TA.AperFunction,Conductor*%
%TO.N,GND*%
G36*
X155958569Y-100349944D02*
G01*
X156005632Y-100379632D01*
X156427095Y-100801095D01*
X156461121Y-100863407D01*
X156464000Y-100890190D01*
X156464000Y-105357810D01*
X156443998Y-105425931D01*
X156427095Y-105446905D01*
X156005632Y-105868368D01*
X155943320Y-105902394D01*
X155887678Y-105901924D01*
X153913641Y-105437445D01*
X153851912Y-105402372D01*
X153818945Y-105339494D01*
X153816500Y-105314794D01*
X153816500Y-101257595D01*
X153836502Y-101189474D01*
X153853405Y-101168499D01*
X154275501Y-100746404D01*
X154337813Y-100712379D01*
X154364596Y-100709500D01*
X155083233Y-100709500D01*
X155094416Y-100710027D01*
X155101909Y-100711702D01*
X155109835Y-100711453D01*
X155109836Y-100711453D01*
X155169986Y-100709562D01*
X155173945Y-100709500D01*
X155201856Y-100709500D01*
X155205791Y-100709003D01*
X155205856Y-100708995D01*
X155217693Y-100708062D01*
X155249951Y-100707048D01*
X155253970Y-100706922D01*
X155261889Y-100706673D01*
X155281343Y-100701021D01*
X155300700Y-100697013D01*
X155312930Y-100695468D01*
X155312931Y-100695468D01*
X155320797Y-100694474D01*
X155328168Y-100691555D01*
X155328170Y-100691555D01*
X155361912Y-100678196D01*
X155373142Y-100674351D01*
X155407983Y-100664229D01*
X155407984Y-100664229D01*
X155415593Y-100662018D01*
X155422412Y-100657985D01*
X155422417Y-100657983D01*
X155433028Y-100651707D01*
X155450776Y-100643012D01*
X155469617Y-100635552D01*
X155505387Y-100609564D01*
X155515307Y-100603048D01*
X155546535Y-100584580D01*
X155546538Y-100584578D01*
X155553362Y-100580542D01*
X155567683Y-100566221D01*
X155582717Y-100553380D01*
X155592694Y-100546131D01*
X155599107Y-100541472D01*
X155627298Y-100507395D01*
X155635288Y-100498616D01*
X155731758Y-100402146D01*
X155791994Y-100368590D01*
X155887678Y-100346076D01*
X155958569Y-100349944D01*
G37*
%TD.AperFunction*%
%TD*%
%TA.AperFunction,Conductor*%
%TO.N,/MOTOR-*%
G36*
X156913621Y-107462002D02*
G01*
X156960114Y-107515658D01*
X156971500Y-107568000D01*
X156971500Y-123648633D01*
X156970000Y-123668018D01*
X156967690Y-123682851D01*
X156967690Y-123682855D01*
X156966309Y-123691724D01*
X156967473Y-123700629D01*
X156967364Y-123709598D01*
X156966550Y-123709588D01*
X156966257Y-123731098D01*
X156962215Y-123756622D01*
X156950033Y-123794116D01*
X156932145Y-123829224D01*
X156908973Y-123861117D01*
X156881117Y-123888973D01*
X156849226Y-123912144D01*
X156814116Y-123930034D01*
X156776627Y-123942214D01*
X156751974Y-123946119D01*
X156732250Y-123947551D01*
X156724276Y-123946309D01*
X156692714Y-123950436D01*
X156676379Y-123951500D01*
X141096000Y-123951500D01*
X141027879Y-123931498D01*
X140981386Y-123877842D01*
X140970000Y-123825500D01*
X140970000Y-122432069D01*
X140975442Y-122395440D01*
X141030865Y-122213023D01*
X141030865Y-122213021D01*
X141032370Y-122208069D01*
X141061529Y-121986590D01*
X141063156Y-121920000D01*
X141044852Y-121697361D01*
X140990431Y-121480702D01*
X140980450Y-121457747D01*
X140970000Y-121407505D01*
X140970000Y-120210083D01*
X140990002Y-120141962D01*
X141026949Y-120104689D01*
X142693517Y-119012799D01*
X144653000Y-117729000D01*
X144653000Y-107568000D01*
X144673002Y-107499879D01*
X144726658Y-107453386D01*
X144779000Y-107442000D01*
X156845500Y-107442000D01*
X156913621Y-107462002D01*
G37*
%TD.AperFunction*%
%TD*%
%TA.AperFunction,Conductor*%
%TO.N,GND*%
G36*
X134622569Y-100349944D02*
G01*
X134669632Y-100379632D01*
X135091095Y-100801095D01*
X135125121Y-100863407D01*
X135128000Y-100890190D01*
X135128000Y-105357810D01*
X135107998Y-105425931D01*
X135091095Y-105446905D01*
X134780405Y-105757595D01*
X134718093Y-105791621D01*
X134691310Y-105794500D01*
X134109751Y-105794500D01*
X134080892Y-105791151D01*
X132577641Y-105437445D01*
X132515912Y-105402372D01*
X132482945Y-105339494D01*
X132480500Y-105314794D01*
X132480500Y-101257595D01*
X132500502Y-101189474D01*
X132517405Y-101168499D01*
X132941608Y-100744297D01*
X133001846Y-100710742D01*
X133010735Y-100708651D01*
X133041845Y-100701331D01*
X133070702Y-100697982D01*
X133504751Y-100697982D01*
X133515934Y-100698509D01*
X133523427Y-100700184D01*
X133531353Y-100699935D01*
X133531354Y-100699935D01*
X133591504Y-100698044D01*
X133595463Y-100697982D01*
X133623374Y-100697982D01*
X133627309Y-100697485D01*
X133627374Y-100697477D01*
X133639211Y-100696544D01*
X133671469Y-100695530D01*
X133675488Y-100695404D01*
X133683407Y-100695155D01*
X133702861Y-100689503D01*
X133722218Y-100685495D01*
X133734448Y-100683950D01*
X133734449Y-100683950D01*
X133742315Y-100682956D01*
X133749686Y-100680037D01*
X133749688Y-100680037D01*
X133783430Y-100666678D01*
X133794660Y-100662833D01*
X133829501Y-100652711D01*
X133829502Y-100652711D01*
X133837111Y-100650500D01*
X133843930Y-100646467D01*
X133843935Y-100646465D01*
X133854546Y-100640189D01*
X133872294Y-100631494D01*
X133891135Y-100624034D01*
X133926905Y-100598046D01*
X133936825Y-100591530D01*
X133968053Y-100573062D01*
X133968056Y-100573060D01*
X133974880Y-100569024D01*
X133989201Y-100554703D01*
X134004235Y-100541862D01*
X134014212Y-100534613D01*
X134020625Y-100529954D01*
X134048816Y-100495877D01*
X134056806Y-100487098D01*
X134063604Y-100480300D01*
X134123840Y-100446744D01*
X134551678Y-100346076D01*
X134622569Y-100349944D01*
G37*
%TD.AperFunction*%
%TD*%
M02*
